<svg width="97" height="81" viewBox="0 0 97 81" fill="none" xmlns="http://www.w3.org/2000/svg">
<path d="M81.6737 51.3277H51.2772C56.4045 42.5169 61.2139 34.2273 66.1823 25.6772L51.1182 0.267944H81.5445L96.8174 25.5324C91.7893 34.0922 86.821 42.5459 81.6737 51.3277Z" fill="#042DAC"/>
<path d="M15.4155 51.4531L0.192383 25.8508L15.346 0.171387H46.2592L61.4625 25.3683H30.9467C25.7597 34.0922 20.7913 42.4976 15.4155 51.4531Z" fill="#042DAC"/>
<path d="M64.5132 80.8286H33.4906L18.2178 55.4001L33.2918 29.6531L48.9323 55.622H79.2792L64.5132 80.8286Z" fill="#042DAC"/>
<path d="M49.0613 42.2949C45.0866 41.9958 42.3739 40.0464 42.2844 36.0994C42.2049 32.3165 44.2718 29.6627 48.4949 29.4986C52.877 29.3249 55.3811 31.7085 55.5202 35.8099C55.6593 39.9113 52.9764 41.7642 49.0613 42.2949Z" fill="#F8A234"/>
</svg>
